<?xml version="1.0" encoding="UTF-8"?>
<!DOCTYPE svg PUBLIC "-//W3C//DTD SVG 1.1//EN" "http://www.w3.org/Graphics/SVG/1.1/DTD/svg11.dtd">
<svg xmlns="http://www.w3.org/2000/svg" version="1.1" width="50px" height="50px" style="shape-rendering:geometricPrecision; text-rendering:geometricPrecision; image-rendering:optimizeQuality; fill-rule:evenodd; clip-rule:evenodd" xmlns:xlink="http://www.w3.org/1999/xlink">
<g><path style="opacity:0.649" fill="#000000" d="M 49.5,34.5 C 49.5,37.8333 49.5,41.1667 49.5,44.5C 47.8333,46.1667 46.1667,47.8333 44.5,49.5C 41.1667,49.5 37.8333,49.5 34.5,49.5C 32.8657,48.0283 31.3657,46.3617 30,44.5C 21.5787,45.649 13.0787,45.8157 4.5,45C 5.25463,42.8252 6.08796,40.6585 7,38.5C 10.1371,36.0144 13.6371,34.1811 17.5,33C 19.7952,29.6351 19.2952,26.4685 16,23.5C 15.0906,17.3877 15.424,11.3877 17,5.5C 22.4958,1.54261 27.9958,1.54261 33.5,5.5C 34.9761,7.42006 35.9761,9.58672 36.5,12C 35.7703,15.7938 35.2703,19.6272 35,23.5C 32.6229,25.8651 31.7895,28.5318 32.5,31.5C 39.0413,28.1149 44.7079,29.1149 49.5,34.5 Z M 30.5,33.5 C 29.5863,36.728 29.2529,40.0613 29.5,43.5C 22.4684,43.8303 15.4684,43.497 8.5,42.5C 11.9588,39.2634 15.9588,36.7634 20.5,35C 23.3719,29.7249 22.7052,24.8915 18.5,20.5C 19.0805,18.1127 19.0805,15.6127 18.5,13C 18.615,7.09799 21.615,4.76465 27.5,6C 33.2185,8.48863 34.5518,12.4886 31.5,18C 32.0219,18.5613 32.3552,19.228 32.5,20C 30.8683,23.0677 29.535,26.2343 28.5,29.5C 28.3402,31.3545 29.0069,32.6879 30.5,33.5 Z M 45.5,36.5 C 47.647,42.1961 45.647,45.5294 39.5,46.5C 34.8333,46.5 32.5,44.1667 32.5,39.5C 33.2797,33.6016 36.613,31.4349 42.5,33C 44.4257,33.4224 45.4257,34.5891 45.5,36.5 Z"/></g>
<g><path style="opacity:0.627" fill="#000000" d="M 45.5,36.5 C 45.6495,37.552 45.4828,38.552 45,39.5C 42.9417,41.0683 40.7751,42.4017 38.5,43.5C 35.6857,43.019 34.3524,41.3523 34.5,38.5C 36.0603,38.5191 37.5603,38.8524 39,39.5C 40.8603,37.7991 43.027,36.7991 45.5,36.5 Z"/></g>
</svg>
