<?xml version="1.0" encoding="UTF-8"?>
<!DOCTYPE svg PUBLIC "-//W3C//DTD SVG 1.1//EN" "http://www.w3.org/Graphics/SVG/1.1/DTD/svg11.dtd">
<svg xmlns="http://www.w3.org/2000/svg" version="1.1" width="50px" height="50px" style="shape-rendering:geometricPrecision; text-rendering:geometricPrecision; image-rendering:optimizeQuality; fill-rule:evenodd; clip-rule:evenodd" xmlns:xlink="http://www.w3.org/1999/xlink">
<g><path style="opacity:0.986" fill="#000000" d="M 5.5,-0.5 C 18.1667,-0.5 30.8333,-0.5 43.5,-0.5C 43.5,16.1667 43.5,32.8333 43.5,49.5C 30.8333,49.5 18.1667,49.5 5.5,49.5C 5.5,32.8333 5.5,16.1667 5.5,-0.5 Z M 8.5,1.5 C 19.415,1.17966 30.2483,1.51299 41,2.5C 41.4999,17.4963 41.6666,32.4963 41.5,47.5C 40.1667,47.5 38.8333,47.5 37.5,47.5C 37.5,43.5 37.5,39.5 37.5,35.5C 33.8333,35.5 30.1667,35.5 26.5,35.5C 26.5,39.5 26.5,43.5 26.5,47.5C 20.1667,47.5 13.8333,47.5 7.5,47.5C 7.18324,32.0888 7.51657,16.7554 8.5,1.5 Z M 13.5,7.5 C 15.8333,7.5 18.1667,7.5 20.5,7.5C 20.5,8.83333 20.5,10.1667 20.5,11.5C 18.1667,11.5 15.8333,11.5 13.5,11.5C 13.5,10.1667 13.5,8.83333 13.5,7.5 Z M 28.5,7.5 C 30.8333,7.5 33.1667,7.5 35.5,7.5C 35.5,8.83333 35.5,10.1667 35.5,11.5C 33.1667,11.5 30.8333,11.5 28.5,11.5C 28.5,10.1667 28.5,8.83333 28.5,7.5 Z M 13.5,17.5 C 15.8333,17.5 18.1667,17.5 20.5,17.5C 20.5,18.8333 20.5,20.1667 20.5,21.5C 18.1667,21.5 15.8333,21.5 13.5,21.5C 13.5,20.1667 13.5,18.8333 13.5,17.5 Z M 28.5,17.5 C 30.8333,17.5 33.1667,17.5 35.5,17.5C 35.5,18.8333 35.5,20.1667 35.5,21.5C 33.1667,21.5 30.8333,21.5 28.5,21.5C 28.5,20.1667 28.5,18.8333 28.5,17.5 Z M 13.5,27.5 C 15.8333,27.5 18.1667,27.5 20.5,27.5C 20.5,28.8333 20.5,30.1667 20.5,31.5C 18.1667,31.5 15.8333,31.5 13.5,31.5C 13.5,30.1667 13.5,28.8333 13.5,27.5 Z M 28.5,27.5 C 30.8333,27.5 33.1667,27.5 35.5,27.5C 35.5,28.8333 35.5,30.1667 35.5,31.5C 33.1667,31.5 30.8333,31.5 28.5,31.5C 28.5,30.1667 28.5,28.8333 28.5,27.5 Z M 13.5,37.5 C 15.8333,37.5 18.1667,37.5 20.5,37.5C 20.5,38.8333 20.5,40.1667 20.5,41.5C 18.1667,41.5 15.8333,41.5 13.5,41.5C 13.5,40.1667 13.5,38.8333 13.5,37.5 Z M 28.5,37.5 C 30.8333,37.5 33.1667,37.5 35.5,37.5C 35.5,40.8333 35.5,44.1667 35.5,47.5C 33.1667,47.5 30.8333,47.5 28.5,47.5C 28.5,44.1667 28.5,40.8333 28.5,37.5 Z"/></g>
<g><path style="opacity:1" fill="#000000" d="M 11.5,5.5 C 15.1667,5.5 18.8333,5.5 22.5,5.5C 22.5,8.16667 22.5,10.8333 22.5,13.5C 18.8333,13.5 15.1667,13.5 11.5,13.5C 11.5,10.8333 11.5,8.16667 11.5,5.5 Z M 13.5,7.5 C 13.5,8.83333 13.5,10.1667 13.5,11.5C 15.8333,11.5 18.1667,11.5 20.5,11.5C 20.5,10.1667 20.5,8.83333 20.5,7.5C 18.1667,7.5 15.8333,7.5 13.5,7.5 Z"/></g>
<g><path style="opacity:1" fill="#000000" d="M 26.5,5.5 C 30.1667,5.5 33.8333,5.5 37.5,5.5C 37.5,8.16667 37.5,10.8333 37.5,13.5C 33.8333,13.5 30.1667,13.5 26.5,13.5C 26.5,10.8333 26.5,8.16667 26.5,5.5 Z M 28.5,7.5 C 28.5,8.83333 28.5,10.1667 28.5,11.5C 30.8333,11.5 33.1667,11.5 35.5,11.5C 35.5,10.1667 35.5,8.83333 35.5,7.5C 33.1667,7.5 30.8333,7.5 28.5,7.5 Z"/></g>
<g><path style="opacity:1" fill="#000000" d="M 11.5,15.5 C 15.1667,15.5 18.8333,15.5 22.5,15.5C 22.5,18.1667 22.5,20.8333 22.5,23.5C 18.8333,23.5 15.1667,23.5 11.5,23.5C 11.5,20.8333 11.5,18.1667 11.5,15.5 Z M 13.5,17.5 C 13.5,18.8333 13.5,20.1667 13.5,21.5C 15.8333,21.5 18.1667,21.5 20.5,21.5C 20.5,20.1667 20.5,18.8333 20.5,17.5C 18.1667,17.5 15.8333,17.5 13.5,17.5 Z"/></g>
<g><path style="opacity:1" fill="#000000" d="M 26.5,15.5 C 30.1667,15.5 33.8333,15.5 37.5,15.5C 37.5,18.1667 37.5,20.8333 37.5,23.5C 33.8333,23.5 30.1667,23.5 26.5,23.5C 26.5,20.8333 26.5,18.1667 26.5,15.5 Z M 28.5,17.5 C 28.5,18.8333 28.5,20.1667 28.5,21.5C 30.8333,21.5 33.1667,21.5 35.5,21.5C 35.5,20.1667 35.5,18.8333 35.5,17.5C 33.1667,17.5 30.8333,17.5 28.5,17.5 Z"/></g>
<g><path style="opacity:1" fill="#000000" d="M 11.5,25.5 C 15.1667,25.5 18.8333,25.5 22.5,25.5C 22.5,28.1667 22.5,30.8333 22.5,33.5C 18.8333,33.5 15.1667,33.5 11.5,33.5C 11.5,30.8333 11.5,28.1667 11.5,25.5 Z M 13.5,27.5 C 13.5,28.8333 13.5,30.1667 13.5,31.5C 15.8333,31.5 18.1667,31.5 20.5,31.5C 20.5,30.1667 20.5,28.8333 20.5,27.5C 18.1667,27.5 15.8333,27.5 13.5,27.5 Z"/></g>
<g><path style="opacity:1" fill="#000000" d="M 26.5,25.5 C 30.1667,25.5 33.8333,25.5 37.5,25.5C 37.5,28.1667 37.5,30.8333 37.5,33.5C 33.8333,33.5 30.1667,33.5 26.5,33.5C 26.5,30.8333 26.5,28.1667 26.5,25.5 Z M 28.5,27.5 C 28.5,28.8333 28.5,30.1667 28.5,31.5C 30.8333,31.5 33.1667,31.5 35.5,31.5C 35.5,30.1667 35.5,28.8333 35.5,27.5C 33.1667,27.5 30.8333,27.5 28.5,27.5 Z"/></g>
<g><path style="opacity:1" fill="#000000" d="M 11.5,35.5 C 15.1667,35.5 18.8333,35.5 22.5,35.5C 22.5,38.1667 22.5,40.8333 22.5,43.5C 18.8333,43.5 15.1667,43.5 11.5,43.5C 11.5,40.8333 11.5,38.1667 11.5,35.5 Z M 13.5,37.5 C 13.5,38.8333 13.5,40.1667 13.5,41.5C 15.8333,41.5 18.1667,41.5 20.5,41.5C 20.5,40.1667 20.5,38.8333 20.5,37.5C 18.1667,37.5 15.8333,37.5 13.5,37.5 Z"/></g>
</svg>
