<?xml version="1.0" encoding="UTF-8"?>
<!DOCTYPE svg PUBLIC "-//W3C//DTD SVG 1.1//EN" "http://www.w3.org/Graphics/SVG/1.1/DTD/svg11.dtd">
<svg xmlns="http://www.w3.org/2000/svg" version="1.1" width="50px" height="50px" style="shape-rendering:geometricPrecision; text-rendering:geometricPrecision; image-rendering:optimizeQuality; fill-rule:evenodd; clip-rule:evenodd" xmlns:xlink="http://www.w3.org/1999/xlink">
<g><path style="opacity:0.716" fill="#000000" d="M 49.5,35.5 C 49.5,37.1667 49.5,38.8333 49.5,40.5C 47.1667,40.5 44.8333,40.5 42.5,40.5C 42.5,41.5 42.5,42.5 42.5,43.5C 30.5,43.5 18.5,43.5 6.5,43.5C 6.5,42.5 6.5,41.5 6.5,40.5C 4.16667,40.5 1.83333,40.5 -0.5,40.5C -0.5,38.8333 -0.5,37.1667 -0.5,35.5C 2.22346,33.7188 5.05679,32.0521 8,30.5C 8.08472,27.639 7.25138,24.9724 5.5,22.5C 5.06227,19.4875 5.56227,16.4875 7,13.5C 9.64014,11.1267 12.8068,9.79336 16.5,9.5C 18.4938,6.8435 21.1605,5.51017 24.5,5.5C 29.9698,8.94162 35.8032,11.6083 42,13.5C 44.3627,19.2813 43.5294,24.6146 39.5,29.5C 42.8611,31.5113 46.1944,33.5113 49.5,35.5 Z M 22.5,8.5 C 27.0873,8.59262 29.7539,10.7593 30.5,15C 29.9268,17.0063 29.9268,18.8397 30.5,20.5C 28.7725,23.2873 27.6058,26.2873 27,29.5C 25.3333,30.8333 23.6667,30.8333 22,29.5C 20.2353,25.311 19.0686,20.9777 18.5,16.5C 17.7843,12.686 19.1176,10.0193 22.5,8.5 Z M 11.5,13.5 C 12.8221,13.33 13.9887,13.6634 15,14.5C 14.6323,20.0167 16.1323,24.8501 19.5,29C 18.3147,30.353 16.9814,31.5197 15.5,32.5C 14.3291,30.8307 12.9958,29.3307 11.5,28C 10.6494,24.5923 9.64944,21.259 8.5,18C 9.38619,16.3853 10.3862,14.8853 11.5,13.5 Z M 33.5,13.5 C 37.0753,13.4524 39.4086,15.119 40.5,18.5C 39.3471,23.8536 37.0137,28.5203 33.5,32.5C 28.9527,30.0542 28.786,27.0542 33,23.5C 33.4983,20.1832 33.665,16.8499 33.5,13.5 Z M 20.5,32.5 C 21.1174,32.6107 21.6174,32.944 22,33.5C 22.273,41.0942 21.773,40.7609 20.5,32.5 Z M 27.5,32.5 C 28.0967,32.7352 28.4301,33.2352 28.5,34C 27.9221,35.8114 27.4221,37.6447 27,39.5C 26.2967,37.0709 26.4634,34.7375 27.5,32.5 Z M 6.5,34.5 C 8.75828,34.7751 9.09162,35.7751 7.5,37.5C 1.30933,38.9899 0.976,37.9899 6.5,34.5 Z M 40.5,34.5 C 42.9366,34.886 44.9366,36.0527 46.5,38C 43.1212,39.024 41.1212,37.8573 40.5,34.5 Z M 15.5,35.5 C 16.4959,35.4142 17.3292,35.7476 18,36.5C 18.2734,38.1012 18.7734,39.6012 19.5,41C 16.1177,41.8236 12.7844,41.657 9.5,40.5C 11.1619,38.3483 13.1619,36.6817 15.5,35.5 Z M 31.5,35.5 C 34.82,36.158 37.4866,37.8247 39.5,40.5C 36.2156,41.657 32.8823,41.8236 29.5,41C 30.2444,39.1852 30.9111,37.3519 31.5,35.5 Z"/></g>
</svg>
