<?xml version="1.0" encoding="UTF-8"?>
<!DOCTYPE svg PUBLIC "-//W3C//DTD SVG 1.1//EN" "http://www.w3.org/Graphics/SVG/1.1/DTD/svg11.dtd">
<svg xmlns="http://www.w3.org/2000/svg" version="1.1" width="48px" height="48px" style="shape-rendering:geometricPrecision; text-rendering:geometricPrecision; image-rendering:optimizeQuality; fill-rule:evenodd; clip-rule:evenodd" xmlns:xlink="http://www.w3.org/1999/xlink">
<g><path style="opacity:0.765" fill="#000000" d="M 39.5,23.5 C 34.5079,18.5122 29.1746,13.8455 23.5,9.5C 20.8972,11.0486 18.3972,12.7153 16,14.5C 14.7202,14.3865 13.8869,13.7199 13.5,12.5C 16.1061,8.87109 19.4394,6.20443 23.5,4.5C 25.7751,5.59834 27.9417,6.93167 30,8.5C 33.0567,7.54948 36.2234,7.21614 39.5,7.5C 38.3417,13.1608 39.8417,17.8274 44,21.5C 44.4828,22.448 44.6495,23.448 44.5,24.5C 42.7085,24.634 41.0418,24.3007 39.5,23.5 Z M 33.5,10.5 C 34.5,10.5 35.5,10.5 36.5,10.5C 36.3536,15.4211 35.3536,15.4211 33.5,10.5 Z"/></g>
<g><path style="opacity:0.834" fill="#000000" d="M 39.5,23.5 C 39.6662,29.5092 39.4995,35.5092 39,41.5C 38.2496,42.1258 37.4162,42.6258 36.5,43C 32.1667,43.1667 27.8333,43.3333 23.5,43.5C 18.3907,43.6141 13.3907,43.1141 8.5,42C 7.68828,35.9149 7.18828,29.7482 7,23.5C 5.64387,24.3802 4.14387,24.7135 2.5,24.5C 4.24063,19.0945 7.9073,15.7611 13.5,14.5C 13.8719,17.0217 13.0386,19.0217 11,20.5C 10.3333,26.5 10.3333,32.5 11,38.5C 16.0717,39.4714 21.2384,39.8047 26.5,39.5C 26.5,36.1667 26.5,32.8333 26.5,29.5C 24.5,29.5 22.5,29.5 20.5,29.5C 20.5,32.1667 20.5,34.8333 20.5,37.5C 19.5,37.5 18.5,37.5 17.5,37.5C 17.1774,33.774 17.5108,30.1073 18.5,26.5C 21.438,25.4252 24.438,25.2585 27.5,26C 29.3987,30.1778 30.0653,34.6778 29.5,39.5C 31.7925,39.7564 33.9592,39.4231 36,38.5C 36.4993,33.5111 36.6659,28.5111 36.5,23.5C 37.5,23.5 38.5,23.5 39.5,23.5 Z"/></g>
</svg>
