<?xml version="1.0" encoding="UTF-8"?>
<!DOCTYPE svg PUBLIC "-//W3C//DTD SVG 1.1//EN" "http://www.w3.org/Graphics/SVG/1.1/DTD/svg11.dtd">
<svg xmlns="http://www.w3.org/2000/svg" version="1.1" width="30px" height="30px" style="shape-rendering:geometricPrecision; text-rendering:geometricPrecision; image-rendering:optimizeQuality; fill-rule:evenodd; clip-rule:evenodd" xmlns:xlink="http://www.w3.org/1999/xlink">
<g><path style="opacity:0.808" fill="#000000" d="M 18.5,7.5 C 18.5,8.16667 18.8333,8.5 19.5,8.5C 19.5,10.8333 19.5,13.1667 19.5,15.5C 18.6618,15.8417 18.3284,16.5084 18.5,17.5C 15.9522,19.0135 16.2855,20.0135 19.5,20.5C 21.9717,21.6421 22.9717,23.6421 22.5,26.5C 17.1667,26.5 11.8333,26.5 6.5,26.5C 6.02827,23.6421 7.02827,21.6421 9.5,20.5C 8.5,20.5 7.5,20.5 6.5,20.5C 6.16667,15.1667 5.83333,15.1667 5.5,20.5C 3.5,20.5 1.5,20.5 -0.5,20.5C -0.5,19.5 -0.5,18.5 -0.5,17.5C 3.63368,16.1927 3.96701,15.1927 0.5,14.5C 0.24933,11.091 0.582663,7.75768 1.5,4.5C 3.94654,2.77726 6.61321,2.27726 9.5,3C 10.3366,4.01127 10.67,5.17793 10.5,6.5C 13.2372,6.40132 15.9039,6.73465 18.5,7.5 Z M 10.5,17.5 C 13.0478,19.0135 12.7145,20.0135 9.5,20.5C 10.1098,19.609 10.4431,18.609 10.5,17.5 Z"/></g>
<g><path style="opacity:0.785" fill="#000000" d="M 29.5,16.5 C 29.5,17.8333 29.5,19.1667 29.5,20.5C 26.1667,20.5 22.8333,20.5 19.5,20.5C 18.8902,19.609 18.5569,18.609 18.5,17.5C 19.3382,17.1583 19.6716,16.4916 19.5,15.5C 20.8333,13.1667 20.8333,10.8333 19.5,8.5C 18.8333,8.5 18.5,8.16667 18.5,7.5C 18.5327,2.59319 20.8661,1.25986 25.5,3.5C 26.9332,7.1955 26.5999,10.6955 24.5,14C 25.9101,15.3717 27.5767,16.205 29.5,16.5 Z"/></g>
</svg>
