<?xml version="1.0" encoding="UTF-8"?>
<!DOCTYPE svg PUBLIC "-//W3C//DTD SVG 1.1//EN" "http://www.w3.org/Graphics/SVG/1.1/DTD/svg11.dtd">
<svg xmlns="http://www.w3.org/2000/svg" version="1.1" width="64px" height="64px" style="shape-rendering:geometricPrecision; text-rendering:geometricPrecision; image-rendering:optimizeQuality; fill-rule:evenodd; clip-rule:evenodd" xmlns:xlink="http://www.w3.org/1999/xlink">
<g><path style="opacity:0.995" fill="#000000" d="M 9.5,1.5 C 10.8333,1.5 12.1667,1.5 13.5,1.5C 13.5,3.5 13.5,5.5 13.5,7.5C 22.8333,7.5 32.1667,7.5 41.5,7.5C 41.5,5.5 41.5,3.5 41.5,1.5C 42.8333,1.5 44.1667,1.5 45.5,1.5C 45.5,3.5 45.5,5.5 45.5,7.5C 48.1667,7.5 50.8333,7.5 53.5,7.5C 53.5,10.1667 53.5,12.8333 53.5,15.5C 56.1667,15.5 58.8333,15.5 61.5,15.5C 61.5,30.8333 61.5,46.1667 61.5,61.5C 44.1667,61.5 26.8333,61.5 9.5,61.5C 9.5,58.8333 9.5,56.1667 9.5,53.5C 6.83333,53.5 4.16667,53.5 1.5,53.5C 1.5,38.1667 1.5,22.8333 1.5,7.5C 4.16667,7.5 6.83333,7.5 9.5,7.5C 9.5,5.5 9.5,3.5 9.5,1.5 Z M 5.5,11.5 C 6.83333,11.5 8.16667,11.5 9.5,11.5C 9.5,12.8333 9.5,14.1667 9.5,15.5C 10.8333,15.5 12.1667,15.5 13.5,15.5C 13.5,14.1667 13.5,12.8333 13.5,11.5C 22.8333,11.5 32.1667,11.5 41.5,11.5C 41.5,12.8333 41.5,14.1667 41.5,15.5C 42.8333,15.5 44.1667,15.5 45.5,15.5C 45.5,14.1667 45.5,12.8333 45.5,11.5C 46.8333,11.5 48.1667,11.5 49.5,11.5C 49.5,14.1667 49.5,16.8333 49.5,19.5C 34.8333,19.5 20.1667,19.5 5.5,19.5C 5.5,16.8333 5.5,14.1667 5.5,11.5 Z M 53.5,19.5 C 54.8333,19.5 56.1667,19.5 57.5,19.5C 57.5,22.1667 57.5,24.8333 57.5,27.5C 56.1667,27.5 54.8333,27.5 53.5,27.5C 53.5,24.8333 53.5,22.1667 53.5,19.5 Z M 5.5,23.5 C 20.1667,23.5 34.8333,23.5 49.5,23.5C 49.5,32.1667 49.5,40.8333 49.5,49.5C 34.8333,49.5 20.1667,49.5 5.5,49.5C 5.5,40.8333 5.5,32.1667 5.5,23.5 Z M 53.5,31.5 C 54.8333,31.5 56.1667,31.5 57.5,31.5C 57.5,40.1667 57.5,48.8333 57.5,57.5C 42.8333,57.5 28.1667,57.5 13.5,57.5C 13.5,56.1667 13.5,54.8333 13.5,53.5C 26.8333,53.5 40.1667,53.5 53.5,53.5C 53.5,46.1667 53.5,38.8333 53.5,31.5 Z"/></g>
<g><path style="opacity:1" fill="#000000" d="M 9.5,28.5 C 11.5,28.5 13.5,28.5 15.5,28.5C 15.5,29.8333 15.5,31.1667 15.5,32.5C 13.5,32.5 11.5,32.5 9.5,32.5C 9.5,31.1667 9.5,29.8333 9.5,28.5 Z"/></g>
<g><path style="opacity:1" fill="#000000" d="M 19.5,28.5 C 21.5,28.5 23.5,28.5 25.5,28.5C 25.5,29.8333 25.5,31.1667 25.5,32.5C 23.5,32.5 21.5,32.5 19.5,32.5C 19.5,31.1667 19.5,29.8333 19.5,28.5 Z"/></g>
<g><path style="opacity:1" fill="#000000" d="M 29.5,28.5 C 31.5,28.5 33.5,28.5 35.5,28.5C 35.5,29.8333 35.5,31.1667 35.5,32.5C 33.5,32.5 31.5,32.5 29.5,32.5C 29.5,31.1667 29.5,29.8333 29.5,28.5 Z"/></g>
<g><path style="opacity:1" fill="#000000" d="M 39.5,28.5 C 41.5,28.5 43.5,28.5 45.5,28.5C 45.5,29.8333 45.5,31.1667 45.5,32.5C 43.5,32.5 41.5,32.5 39.5,32.5C 39.5,31.1667 39.5,29.8333 39.5,28.5 Z"/></g>
<g><path style="opacity:1" fill="#000000" d="M 9.5,40.5 C 11.5,40.5 13.5,40.5 15.5,40.5C 15.5,41.8333 15.5,43.1667 15.5,44.5C 13.5,44.5 11.5,44.5 9.5,44.5C 9.5,43.1667 9.5,41.8333 9.5,40.5 Z"/></g>
<g><path style="opacity:1" fill="#000000" d="M 19.5,40.5 C 21.5,40.5 23.5,40.5 25.5,40.5C 25.5,41.8333 25.5,43.1667 25.5,44.5C 23.5,44.5 21.5,44.5 19.5,44.5C 19.5,43.1667 19.5,41.8333 19.5,40.5 Z"/></g>
<g><path style="opacity:1" fill="#000000" d="M 29.5,40.5 C 31.5,40.5 33.5,40.5 35.5,40.5C 35.5,41.8333 35.5,43.1667 35.5,44.5C 33.5,44.5 31.5,44.5 29.5,44.5C 29.5,43.1667 29.5,41.8333 29.5,40.5 Z"/></g>
<g><path style="opacity:1" fill="#000000" d="M 39.5,40.5 C 41.5,40.5 43.5,40.5 45.5,40.5C 45.5,41.8333 45.5,43.1667 45.5,44.5C 43.5,44.5 41.5,44.5 39.5,44.5C 39.5,43.1667 39.5,41.8333 39.5,40.5 Z"/></g>
</svg>
