<?xml version="1.0" encoding="UTF-8"?>
<!DOCTYPE svg PUBLIC "-//W3C//DTD SVG 1.1//EN" "http://www.w3.org/Graphics/SVG/1.1/DTD/svg11.dtd">
<svg xmlns="http://www.w3.org/2000/svg" version="1.1" width="50px" height="50px" style="shape-rendering:geometricPrecision; text-rendering:geometricPrecision; image-rendering:optimizeQuality; fill-rule:evenodd; clip-rule:evenodd" xmlns:xlink="http://www.w3.org/1999/xlink">
<g><path style="opacity:0.997" fill="#000000" d="M 1.5,5.5 C 16.8333,5.5 32.1667,5.5 47.5,5.5C 47.5,14.1667 47.5,22.8333 47.5,31.5C 32.1667,31.5 16.8333,31.5 1.5,31.5C 1.5,22.8333 1.5,14.1667 1.5,5.5 Z M 3.5,7.5 C 5.16667,7.5 6.83333,7.5 8.5,7.5C 8.5,14.8333 8.5,22.1667 8.5,29.5C 6.83333,29.5 5.16667,29.5 3.5,29.5C 3.5,22.1667 3.5,14.8333 3.5,7.5 Z M 10.5,7.5 C 19.8333,7.5 29.1667,7.5 38.5,7.5C 38.5,14.8333 38.5,22.1667 38.5,29.5C 29.1667,29.5 19.8333,29.5 10.5,29.5C 10.5,22.1667 10.5,14.8333 10.5,7.5 Z M 40.5,7.5 C 42.1667,7.5 43.8333,7.5 45.5,7.5C 45.5,14.8333 45.5,22.1667 45.5,29.5C 43.8333,29.5 42.1667,29.5 40.5,29.5C 40.5,22.1667 40.5,14.8333 40.5,7.5 Z"/></g>
<g><path style="opacity:0.653" fill="#000000" d="M 20.5,10.5 C 23.1873,10.3359 25.854,10.5026 28.5,11C 30.0368,12.1096 30.7035,13.6096 30.5,15.5C 33.488,15.1547 34.8213,16.488 34.5,19.5C 34.48,23.2544 32.8134,24.2544 29.5,22.5C 30.8334,21.3801 31.3334,20.0468 31,18.5C 28.8191,16.7356 26.6524,15.0689 24.5,13.5C 22.3476,15.0689 20.1809,16.7356 18,18.5C 17.6666,20.0468 18.1666,21.3801 19.5,22.5C 18.277,23.6139 16.9437,23.7805 15.5,23C 14.4086,20.9361 14.2419,18.7695 15,16.5C 16.0113,15.6634 17.1779,15.33 18.5,15.5C 18.3915,13.4862 19.0582,11.8195 20.5,10.5 Z"/></g>
<g><path style="opacity:0.694" fill="#000000" d="M 0.5,32.5 C 12.3249,31.951 23.9916,32.951 35.5,35.5C 37.4041,31.5564 38.4041,31.8897 38.5,36.5C 39.8221,36.33 40.9887,36.6634 42,37.5C 42.2022,35.7444 42.7022,34.0777 43.5,32.5C 44.48,35.0865 44.8134,37.7531 44.5,40.5C 43.5,40.5 42.5,40.5 41.5,40.5C 41.5,42.8333 41.5,45.1667 41.5,47.5C 36.3422,45.094 31.0088,42.9274 25.5,41C 17.7514,39.2249 9.91806,38.0582 2,37.5C 1.5,37.1667 1,36.8333 0.5,36.5C 1.37598,35.7492 2.37598,35.2492 3.5,35C 1.88066,34.7645 0.880656,33.9311 0.5,32.5 Z M 22.5,37.5 C 23.2739,36.8529 24.2739,36.5195 25.5,36.5C 28.1786,36.9357 30.8453,37.4357 33.5,38C 34.7112,38.8928 34.7112,39.7261 33.5,40.5C 29.986,38.8833 26.3193,37.8833 22.5,37.5 Z M 36.5,38.5 C 37.766,39.0899 39.0993,39.5899 40.5,40C 39.8095,41.0674 39.3095,42.2341 39,43.5C 37.1079,42.3826 36.2746,40.7159 36.5,38.5 Z"/></g>
</svg>
