<?xml version="1.0" encoding="UTF-8"?>
<!DOCTYPE svg PUBLIC "-//W3C//DTD SVG 1.1//EN" "http://www.w3.org/Graphics/SVG/1.1/DTD/svg11.dtd">
<svg xmlns="http://www.w3.org/2000/svg" version="1.1" width="50px" height="50px" style="shape-rendering:geometricPrecision; text-rendering:geometricPrecision; image-rendering:optimizeQuality; fill-rule:evenodd; clip-rule:evenodd" xmlns:xlink="http://www.w3.org/1999/xlink">
<g><path style="opacity:0.893" fill="#000000" d="M 20.5,1.5 C 23.2469,1.18665 25.9135,1.51998 28.5,2.5C 29.154,4.11511 29.654,5.78178 30,7.5C 30.5613,8.02186 31.228,8.3552 32,8.5C 34.4114,7.01277 36.9114,6.17944 39.5,6C 41.2273,7.38944 42.5606,9.0561 43.5,11C 41.6335,13.216 40.8002,15.716 41,18.5C 46.9166,19.4001 48.75,22.7334 46.5,28.5C 44.8849,29.154 43.2182,29.654 41.5,30C 40.9781,30.5613 40.6448,31.228 40.5,32C 41.9872,34.4114 42.8206,36.9114 43,39.5C 41.6106,41.2273 39.9439,42.5606 38,43.5C 35.784,41.6335 33.284,40.8002 30.5,41C 29.5999,46.9166 26.2666,48.75 20.5,46.5C 19.846,44.8849 19.346,43.2182 19,41.5C 18.4387,40.9781 17.772,40.6448 17,40.5C 14.5886,41.9872 12.0886,42.8206 9.5,43C 7.77268,41.6106 6.43935,39.9439 5.5,38C 7.36647,35.784 8.19981,33.284 8,30.5C 2.08337,29.5999 0.250036,26.2666 2.5,20.5C 4.11511,19.846 5.78178,19.346 7.5,19C 8.02186,18.4387 8.3552,17.772 8.5,17C 7.01277,14.5886 6.17944,12.0886 6,9.5C 7.38944,7.77268 9.0561,6.43935 11,5.5C 16.8984,10.4802 20.0651,9.14687 20.5,1.5 Z M 21.5,18.5 C 30.8176,18.6546 32.8176,22.488 27.5,30C 18.0959,30.141 16.0959,26.3076 21.5,18.5 Z"/></g>
</svg>
