<?xml version="1.0" encoding="UTF-8"?>
<!DOCTYPE svg PUBLIC "-//W3C//DTD SVG 1.1//EN" "http://www.w3.org/Graphics/SVG/1.1/DTD/svg11.dtd">
<svg xmlns="http://www.w3.org/2000/svg" version="1.1" width="50px" height="50px" style="shape-rendering:geometricPrecision; text-rendering:geometricPrecision; image-rendering:optimizeQuality; fill-rule:evenodd; clip-rule:evenodd" xmlns:xlink="http://www.w3.org/1999/xlink">
<g><path style="opacity:0.644" fill="#000000" d="M 20.5,1.5 C 23.2469,1.18665 25.9135,1.51998 28.5,2.5C 29.154,4.11511 29.654,5.78178 30,7.5C 30.5613,8.02186 31.228,8.3552 32,8.5C 34.4114,7.01277 36.9114,6.17944 39.5,6C 41.2273,7.38944 42.5606,9.0561 43.5,11C 41.6335,13.216 40.8002,15.716 41,18.5C 46.9166,19.4001 48.75,22.7334 46.5,28.5C 44.8849,29.154 43.2182,29.654 41.5,30C 40.9781,30.5613 40.6448,31.228 40.5,32C 41.9872,34.4114 42.8206,36.9114 43,39.5C 41.6106,41.2273 39.9439,42.5606 38,43.5C 35.784,41.6335 33.284,40.8002 30.5,41C 29.5999,46.9166 26.2666,48.75 20.5,46.5C 19.846,44.8849 19.346,43.2182 19,41.5C 18.4387,40.9781 17.772,40.6448 17,40.5C 14.5886,41.9872 12.0886,42.8206 9.5,43C 7.77268,41.6106 6.43935,39.9439 5.5,38C 7.36647,35.784 8.19981,33.284 8,30.5C 2.08337,29.5999 0.250036,26.2666 2.5,20.5C 4.11511,19.846 5.78178,19.346 7.5,19C 8.02186,18.4387 8.3552,17.772 8.5,17C 7.01277,14.5886 6.17944,12.0886 6,9.5C 7.38944,7.77268 9.0561,6.43935 11,5.5C 16.8984,10.4802 20.0651,9.14687 20.5,1.5 Z M 23.5,3.5 C 24.4959,3.41423 25.3292,3.74756 26,4.5C 25.7479,9.08503 27.9145,11.7517 32.5,12.5C 39.5,8.16667 40.8333,9.5 36.5,16.5C 37.373,18.4134 38.373,20.2467 39.5,22C 47.5,23.6667 47.5,25.3333 39.5,27C 38.373,28.7533 37.373,30.5866 36.5,32.5C 40.8333,39.5 39.5,40.8333 32.5,36.5C 30.5866,37.373 28.7533,38.373 27,39.5C 25.3333,47.5 23.6667,47.5 22,39.5C 20.2467,38.373 18.4134,37.373 16.5,36.5C 9.5,40.8333 8.16667,39.5 12.5,32.5C 11.627,30.5866 10.627,28.7533 9.5,27C 1.5,25.3333 1.5,23.6667 9.5,22C 10.627,20.2467 11.627,18.4134 12.5,16.5C 8.16667,9.5 9.5,8.16667 16.5,12.5C 18.1667,11.6667 19.8333,10.8333 21.5,10C 22.2301,7.84604 22.8968,5.67937 23.5,3.5 Z M 21.5,19.5 C 29.4863,18.998 31.4863,22.1647 27.5,29C 19.424,29.8047 17.424,26.638 21.5,19.5 Z"/></g>
<g><path style="opacity:0.641" fill="#000000" d="M 20.5,16.5 C 31.8598,15.71 35.1931,20.5434 30.5,31C 19.9641,34.997 15.4641,31.497 17,20.5C 17.6897,18.6498 18.8564,17.3164 20.5,16.5 Z M 21.5,19.5 C 17.424,26.638 19.424,29.8047 27.5,29C 31.4863,22.1647 29.4863,18.998 21.5,19.5 Z"/></g>
</svg>
